# xmcd
#
# Track frame offsets:
#	150
#	17537
#	37267
#	53347
#	72450
#	91892
#	109170
#	126525
#	148905
#	166875
#	186105
#	205812
#
# Disc length: 2975 seconds
#
# Revision: 8
# Processed by: cddbd v1.5.2PL0 Copyright (c) Steve Scherf et al.
# Submitted via: EasyCDDAExtractor 15.3.0.1
#
DISCID=ac0b9d0c
DTITLE=Soraya - Cuerpo Y Alma
DYEAR=2000
DGENRE=Latin
TTITLE0=Cuerpo Y Alma
TTITLE1=Algo Tan Mio
TTITLE2=En Donde Estas
TTITLE3=Half
TTITLE4=When Did I Say That
TTITLE5=Tu Amor, Mi Amor
TTITLE6=You And I
TTITLE7=Need To Be Found
TTITLE8=Despues De Amar Asi
TTITLE9=La Misma Historia
TTITLE10=Amigo Mio
TTITLE11=Dance Of The Waiting
EXTD=
EXTT0=
EXTT1=
EXTT2=
EXTT3=
EXTT4=
EXTT5=
EXTT6=
EXTT7=
EXTT8=
EXTT9=
EXTT10=
EXTT11=
PLAYORDER=
